<?xml version="1.0" encoding="UTF-8"?>
<!-- Created with Inkscape (http://www.inkscape.org/) -->
<svg width="968.5mm" height="166.09mm" version="1.1" viewBox="0 0 968.5 166.09" xmlns="http://www.w3.org/2000/svg">
 <g transform="translate(389.89 -582.39)" fill="#fff" stroke="#fff">
  <g>
   <path d="m-389.74 592.71-0.0176-4.2991h36.87l1e-5 4.2991h-9.3394s-2.0193 0.25242-2.2717 1.7669c-0.25244 1.5145 0.36924 41.807 0.36924 41.807s0.6707 1.3862 1.7669 0.25241c0.20941-0.21658 4.3022-5.5805 9.188-12.376 6.5706-9.1387 14.714-20.647 17.471-24.603 2.5314-3.0181 0.83707-6.0614-1.2031-6.6734-1.6737-0.42747-4.1176-0.42594-4.1176-0.42594l-0.0479-4.0467h29.699l8e-3 4.0467-13.126 0.25241s-24.863 34.329-25.115 34.834c-0.25242 0.50483-1.5145 1.0097 0 3.7862 1.2609 2.3117 24.917 43.815 32.804 57.649 1.977 4.044 5.1809 7.6677 8.908 7.8529 3.6601 0.0631 9.2179 0.18932 9.2179 0.18932l-9e-3 4.6614h-37.333l-0.0836-4.3459 6.6891-0.0631s1.83-0.37863 1.4514-1.199c-0.37865-0.82036-22.844-40.387-22.844-40.387l-7.0398-13.369s-0.80319-2.2311-2.7665-0.26773c-1.9633 1.9634-3.2127 4.7745-3.2127 4.7745l0.0446 10.486 0.71395 33.421s0.22309 5.3546 4.0605 6.5147c3.8375 1.1602 7.184 0.0446 7.184 0.0446l0.0124 4.39-37.842 8e-3 -0.0249-3.8545 10.27-0.23301s1.4369 0.0553 1.4815-1.4618c0.0321-31.488 0.0321-62.885 0.0662-94.471 0 0-0.3974-8.0142-5.1933-8.6453-4.7103-0.61977-6.689-0.31552-6.689-0.31552z" stroke-width=".26458px"/>
   <path transform="matrix(.26458 0 0 .26458 -389.89 582.39)" d="m495.46 166.63c-15.608 0.12938-31.175 2.2456-45.557 6.4551-33.525 9.6951-59.073 26.952-77.346 48.641-25.361 30.103-36.132 69.604-30.605 115.51 4.907 39.575 21.586 66.793 51.053 89.994 38.67 30.234 85.727 38.92 136.79 28.506 43.646-12.402 67.498-30.767 82.523-47.939 15.026-17.172 25.758-40.783 25.758-40.783l-11.688-6.918-11.686 18.365s1.4302-0.23779-11.688 15.98c-13.118 16.218-33.152 29.097-49.848 36.49-32.545 13.298-80.438 9.635-111.43-7.0059-34.102-18.521-59.893-52.326-71.346-91.146-5.3192-21.468-5.0657-48.013 1.5156-70.947 4.293-11.21 5.2461-13.832 5.2461-13.832h257.75c-14.173-23.83-33.191-45.828-57.574-61.121-22.121-13.498-52.067-20.493-81.865-20.246zm-11.762 15.199c20.078-0.0886 35.29 5.4795 46.945 11.021 17.512 8.3266 27.999 19.713 36.83 28.434 19.08 18.842-2.8613 15.98-2.8613 15.98s-39.593-0.71701-124.5-0.47852c-34.077 0.0957-56.834-1.1426-56.834-1.1426s17.221-32.279 58.742-46.318c15.833-5.3535 29.631-7.4429 41.678-7.4961z" stroke-width="1px"/>
   <path d="m-214.59 701.68 0.0245-2.9575 4.9221-0.12621s2.5242 0.75725 2.1455-2.2718c-0.37863-3.029-0.37863-55.405-0.37863-55.405s-0.75725-1.8931-2.2718-0.37863-3.7862 4.0387-3.7862 4.0387l-2.398-1.7669 21.455-21.203 2.0193 2.2718c-2.6623 2.2919-5.5289 4.6118-4.6093 8.4504 0.25242 1.0097 0.92108 3.2661 3.6977 0.48952 2.7766-2.7766 7.8624-6.5722 12.785-7.2032 4.9221-0.63104 9.9048-0.97001 14.574 2.69 4.6697 3.66 5.7263 9.6596 5.8525 13.067 0.12621 3.4076 0.0725 51.794 0.0725 51.794s0.0118 3.0861 2.5386 4.6919c2.2697 1.0989 3.711 1.0608 7.6544 0.97109l-0.0181 2.8477h-28.434l0.0217-2.9575 5.9318-0.12621s1.8931 0.37863 2.0193-3.029c-0.28668-15.442-0.37925-38.668-0.77071-53.674-0.0731-2.6178-0.21914-3.415-0.89318-4.9995-1.4474-3.3902-3.3273-6.0371-8.8537-6.4714-3.7956-0.22218-7.3678 0.7817-10.075 2.807-3.4844 3.4083-6.2072 9.3022-6.2072 9.3022-0.0427 7.0272-0.22811 17.706-0.0911 23.209l0.10716 18.245c0.30612 3.7611-0.35362 8.2222 1.6374 11.476 1.3656 2.2319 4.7656 3.3764 8.2349 3.0083l1.2621-0.25241-0.0339 3.4624z" stroke-width=".26458px"/>
   <path d="m-85.498 626.28-0.04691 3.5969c5.2553 0.30374 7.7797-0.0814 10.928 3.4388 1.2952 1.4753 2.6396 3.6935 3.6149 6.0899 1.9358 4.7564 16.62 41.894 20.219 50.998 0.50288 1.9652 0.43796 2.2243-0.02595 3.8397-0.23278 0.83136-2.9574 7.7892-6.1146 14.391-2.1012 4.6348-4.7726 10.145-7.8248 14.324-3.9569 5.4179-8.0184 8.9761-12.153 11.313-8.1404 4.4804-10.353-3.6705-10.353-3.6705l-2.9428 0.106 0.74194 7.503 1.0989 10.114s7.0677-1.0728 13.757-6.7521c9.7847-8.2637 15.921-18.102 21.05-28.546 7.6235-15.571 12.367-31.394 19.147-48.189l7.888-22.465 3.5969-10.475s0.56926-1.6089 1.6953-2.3747c2.1373-0.28286 4.4958-0.10541 7.3981-0.0752l0.05037-3.1034-26.227-0.0152-0.02843 3.252c9.34e-4 -0.10592 3.2555-0.42961 5.4548 1.3355 2.24 2.0007 1.9567 4.7415 1.8048 7.342-0.21732 3.6025-0.90259 7.2167-1.948 10.803l-7.257 22.591s-1.9562 7.1308-4.1018-0.12621c-2.1455-7.257-10.286-27.261-10.286-27.261l-5.427-13.946s-0.50483-1.0728 1.0097-1.0097c1.5145 0.0631 8.3626-0.0889 8.3626-0.0889l0.0303-3.0032z" stroke-width=".265"/>
  </g>
  <path d="m80.617 703.52c-13.137-1.0531-24.448-7.0094-33.572-17.679-4.3349-5.0691-7.7128-11.747-8.8476-17.491-0.78348-3.9656-0.96914-5.7042-0.96286-9.0166 0.0063-3.3343 0.2132-5.5744 0.81721-8.8494 0.40564-2.1994 1.3481-5.9319 2.0278-8.0312 1.9928-6.1546 5.9043-12.143 11.988-18.353 3.2409-3.3084 8.1277-7.5287 9.5391-8.2382 0.71457-0.35922 1.0188-0.62554 1.2704-1.1119 0.32296-0.62454 0.11295-1.0976-1.0235-2.3056-1.2568-1.3359-1.7942-2.099-2.3969-3.4032-1.4701-3.1819-1.8394-7.3975-0.89473-10.214 1.7956-5.3535 5.6922-9.6372 11.19-12.301 3.26-1.5798 5.5735-2.142 8.8309-2.1459 3.2012-4e-3 5.2918 0.49833 8.7901 2.1115 1.7421 0.80334 2.406 0.89449 2.8171 0.38679 0.22619-0.27933 0.2567-0.55698 0.2567-2.3358v-2.0188h4.0363l0.084 4.3727c0.0462 2.405 0.099 9.7572 0.11735 16.338l0.0334 11.966h-4.0271l0.07762-0.64404c0.18858-1.5647 0.25261-8.8944 0.0941-10.772-0.54972-6.5133-2.2006-10.606-5.2064-12.909-8.5993-4.633-16.771-1.1451-16.902 8.6092-0.0021 3.0507 0.97614 5.2323 3.5559 7.9308 0.66325 0.69377 1.6596 1.6089 2.2142 2.0337 0.55457 0.42477 1.0083 0.7791 1.0083 0.78741 0 8e-3 -0.14991 1.0166-0.33313 2.2407-0.20156 1.3466-0.40238 2.2695-0.50846 2.3368-0.09643 0.0612-0.32786 0.11224-0.51429 0.11348-0.52047 3e-3 -2.9094 0.61194-4.271 1.0878-2.8429 0.99367-6.4226 3.0418-9.1194 5.2177-1.4677 1.1842-3.922 3.6553-4.9836 5.0179-3.9272 5.0404-6.6213 12.141-7.5866 19.995-1.0233 8.3265 1.6853 21.315 6.0712 29.112 2.34 4.1601 4.8636 7.41 8.8297 11.371 2.9661 2.962 4.0781 3.8591 6.7601 5.4538 4.6053 2.7382 7.4574 3.8966 11.722 4.7609 8.7439 1.7723 16.031 1.4844 21.959-0.86763 6.7059-2.6602 12.354-8.0499 15.769-15.048 2.4814-5.0844 3.57-10.03 3.9395-17.898 0.14513-3.0899 0.1427-3.149-0.26493-6.4404-0.77834-6.2846-1.6078-9.8763-3.0753-13.316-1.8194-4.2649-4.9262-8.3409-8.2946-10.882-1.395-1.0525-4.4392-2.6062-6.2481-3.1889-2.445-0.78764-3.7902-1-6.3949-1.0096-3.4152-0.0126-5.4497 0.48158-8.9488 2.1736-4.9079 2.3732-7.8196 5.2829-10.299 10.292-1.7967 3.6302-2.4183 5.973-2.5417 9.5812-0.06013 1.758-0.02455 2.6306 0.16035 3.932 0.54114 3.8089 2.0832 7.978 4.1041 11.096 0.88283 1.362 2.7405 3.2684 3.9361 4.0391 2.5744 1.6596 5.8964 2.2264 8.0963 1.3813 1.4411-0.55361 2.681-2.0744 3.071-3.7665l0.1468-0.63697 3.7564 0.082 0.10651 0.50136c0.0586 0.27575 0.0984 1.203 0.0884 2.0606-0.0224 1.9309-0.33387 3.1823-1.2243 4.9183-0.5331 1.0394-0.8722 1.4815-2.0047 2.6136-1.2034 1.2031-1.5297 1.4455-2.7867 2.0707-2.1294 1.0591-3.1277 1.2814-5.8303 1.2982-2.5047 0.0156-3.5619-0.15141-5.9176-0.93505-2.8624-0.95216-5.003-2.2847-7.1703-4.4636-6.3066-6.3401-7.7485-16.481-3.9633-27.874 1.0778-3.2441 3.2829-7.0956 6.0161-10.508 0.65703-0.82031 2.1732-2.4698 3.3692-3.6656 3.3719-3.3712 6.6988-5.8972 11.666-8.8573 4.804-2.863 8.794-4.9042 19.253-9.8493 3.4304-1.6218 7.1464-3.4039 8.258-3.9602 1.1115-0.55624 4.008-1.8671 6.4367-2.913 5.2875-2.2771 7.9693-3.5059 9.8311-4.5045 3.2229-1.7287 6.5163-4.5476 7.3864-6.3221 0.51308-1.0464 0.594-2.1064 0.22083-2.8928-0.24762-0.52181-0.97295-1.2292-1.5124-1.475-0.25619-0.11673-0.31306-0.22541-0.26051-0.49794 0.037-0.19174 0.16356-1.1723 0.28131-2.179 0.11776-1.0067 0.24443-1.9708 0.2815-2.1423l0.0674-0.31189 0.82235 0.44748c1.5528 0.84498 3.2021 2.6171 4.1001 4.4056 0.90243 1.7973 1.4055 4.6324 1.1771 6.6342-0.4608 4.0398-2.3184 7.2391-6.2242 10.72-2.5882 2.3063-5.125 4.0208-8.4938 5.7405-3.3256 1.6976-6.1561 2.7354-14.982 5.4934-7.105 2.2201-8.0131 2.5643-8.4644 3.2088-0.59414 0.84825-2e-3 1.4873 2.5296 2.7318 4.2932 2.1101 7.6311 4.151 9.9141 6.0617 6.6808 5.5913 10.662 15.383 10.664 26.229 1e-3 7.9415-2.0271 14.65-6.8484 22.651-2.8304 4.6967-3.2485 5.2658-5.6251 7.6573-1.2305 1.2382-2.9084 2.7854-3.7287 3.4384-7.8113 6.2178-17.132 9.9988-27.795 11.276-1.684 0.20164-8.0106 0.36748-9.4911 0.24879z" stroke-width=".265"/>
  <g>
   <path d="m-143.45 701.68 0.0245-2.9575 4.9221-0.12621s2.5242 0.75725 2.1455-2.2718c-0.37863-3.029-0.37863-55.405-0.37863-55.405s-0.75725-1.8931-2.2718-0.37863-3.7862 4.0387-3.7862 4.0387l-2.398-1.7669 21.455-21.203 2.0193 2.2718c-2.6623 2.2919-5.5289 4.6118-4.6093 8.4504 0.25242 1.0097 0.92108 3.2661 3.6977 0.48952 2.7766-2.7766 7.8624-6.5722 12.785-7.2032 4.9221-0.63104 9.9048-0.97001 14.575 2.69 4.6697 3.66 5.7263 9.6596 5.8525 13.067 0.12621 3.4076 0.0725 51.794 0.0725 51.794s0.0118 3.0861 2.5386 4.6919c2.2697 1.0989 3.711 1.0608 7.6544 0.97109l-0.0181 2.8477h-28.434l0.0217-2.9575 5.9318-0.12621s1.8931 0.37863 2.0193-3.029c-0.28668-15.442-0.37926-38.668-0.77072-53.674-0.0731-2.6178-0.21914-3.415-0.89318-4.9995-1.4474-3.3902-3.3273-6.0371-8.8537-6.4714-3.7956-0.22218-7.3678 0.7817-10.075 2.807-3.4844 3.4083-6.2072 9.3022-6.2072 9.3022-0.0427 7.0272-0.22811 17.706-0.0911 23.209l0.10716 18.245c0.30612 3.7611-0.35362 8.2222 1.6374 11.476 1.3656 2.2319 4.7656 3.3764 8.2349 3.0083l1.2621-0.25241-0.0339 3.4624z" stroke-width=".26458px"/>
   <path d="m202.5 592.71-0.0176-4.2991h36.87l1e-5 4.2991h-9.3394s-2.0193 0.25242-2.2717 1.7669c-0.25244 1.5145 0.36924 41.807 0.36924 41.807s0.6707 1.3862 1.7669 0.25241c0.20941-0.21658 4.3022-5.5805 9.188-12.376 6.5706-9.1387 14.714-20.647 17.471-24.603 2.5314-3.0181 0.83707-6.0614-1.2031-6.6734-1.6737-0.42747-4.1176-0.42594-4.1176-0.42594l-0.0479-4.0467h29.699l8e-3 4.0467-13.126 0.25241s-24.863 34.329-25.115 34.834c-0.25242 0.50483-1.5145 1.0097 0 3.7862 1.2609 2.3117 24.917 43.815 32.804 57.649 1.977 4.044 5.1809 7.6677 8.908 7.8529 3.6601 0.0631 9.2179 0.18932 9.2179 0.18932l-9e-3 4.6614h-37.333l-0.0836-4.3459 6.6891-0.0631s1.83-0.37863 1.4514-1.199c-0.37865-0.82036-22.844-40.387-22.844-40.387l-7.0398-13.369s-0.80319-2.2311-2.7665-0.26773c-1.9633 1.9634-3.2127 4.7745-3.2127 4.7745l0.0446 10.486 0.71395 33.421s0.22309 5.3546 4.0605 6.5147c3.8375 1.1602 7.184 0.0446 7.184 0.0446l0.0124 4.39-37.842 8e-3 -0.0249-3.8545 10.27-0.23301s1.4369 0.0553 1.4815-1.4618c0.0321-31.488 0.0321-62.885 0.0662-94.471 0 0-0.3974-8.0142-5.1933-8.6453-4.7103-0.61977-6.689-0.31552-6.689-0.31552z" stroke-width=".26458px"/>
   <path transform="matrix(.26458 0 0 .26458 -389.89 582.39)" d="m2733.9 166.63c-15.608 0.12938-31.177 2.2456-45.559 6.4551-33.525 9.6951-59.073 26.952-77.346 48.641-25.361 30.103-36.132 69.604-30.605 115.51 4.907 39.575 21.586 66.793 51.053 89.994 38.67 30.234 85.727 38.92 136.79 28.506 43.646-12.402 67.498-30.767 82.523-47.939 15.026-17.172 25.758-40.783 25.758-40.783l-11.686-6.918-11.688 18.365s1.4302-0.23779-11.688 15.98c-13.118 16.218-33.15 29.097-49.846 36.49-32.545 13.298-80.44 9.635-111.43-7.0059-34.102-18.521-59.893-52.326-71.346-91.146-5.3192-21.468-5.0657-48.013 1.5156-70.947 4.293-11.21 5.2461-13.832 5.2461-13.832h257.75c-14.173-23.83-33.191-45.828-57.574-61.121-22.12-13.498-52.066-20.493-81.863-20.246zm-11.762 15.199c20.078-0.0886 35.29 5.4795 46.945 11.021 17.512 8.3266 27.998 19.713 36.828 28.434 19.08 18.842-2.8614 15.98-2.8614 15.98s-39.592-0.71701-124.5-0.47852c-34.076 0.0957-56.832-1.1426-56.832-1.1426s17.219-32.279 58.74-46.318c15.833-5.3535 29.633-7.4429 41.68-7.4961z" stroke-width="1px"/>
   <path d="m377.66 701.68 0.0245-2.9575 4.9221-0.12621s2.5242 0.75725 2.1455-2.2718c-0.37863-3.029-0.37863-55.405-0.37863-55.405s-0.75725-1.8931-2.2718-0.37863-3.7862 4.0387-3.7862 4.0387l-2.398-1.7669 21.455-21.203 2.0193 2.2718c-2.6623 2.2919-5.5289 4.6118-4.6093 8.4504 0.25242 1.0097 0.92108 3.2661 3.6977 0.48952 2.7766-2.7766 7.8624-6.5722 12.785-7.2032 4.9221-0.63104 9.9048-0.97001 14.574 2.69 4.6697 3.66 5.7263 9.6596 5.8525 13.067 0.12621 3.4076 0.0725 51.794 0.0725 51.794s0.0118 3.0861 2.5386 4.6919c2.2697 1.0989 3.711 1.0608 7.6544 0.97109l-0.0181 2.8477h-28.434l0.0217-2.9575 5.9318-0.12621s1.8931 0.37863 2.0193-3.029c-0.28668-15.442-0.37925-38.668-0.77071-53.674-0.0731-2.6178-0.21914-3.415-0.89318-4.9995-1.4474-3.3902-3.3273-6.0371-8.8537-6.4714-3.7956-0.22218-7.3678 0.7817-10.075 2.807-3.4844 3.4083-6.2072 9.3022-6.2072 9.3022-0.0427 7.0272-0.22811 17.706-0.0911 23.209l0.10716 18.245c0.30612 3.7611-0.35362 8.2222 1.6374 11.476 1.3656 2.2319 4.7656 3.3764 8.2349 3.0083l1.2621-0.25241-0.0339 3.4624z" stroke-width=".26458px"/>
   <path d="m506.75 626.28-0.0469 3.5969c5.2553 0.30374 7.7797-0.0814 10.928 3.4388 1.2952 1.4753 2.6396 3.6935 3.6149 6.0899 1.9358 4.7564 16.62 41.894 20.219 50.998 0.50289 1.9652 0.43797 2.2243-0.0259 3.8397-0.23278 0.83136-2.9574 7.7892-6.1146 14.391-2.1012 4.6348-4.7726 10.145-7.8248 14.324-3.957 5.4179-8.0184 8.9761-12.153 11.313-8.1404 4.4804-10.353-3.6705-10.353-3.6705l-2.9428 0.106 0.74194 7.503 1.0989 10.114s7.0677-1.0728 13.757-6.7521c9.7847-8.2637 15.921-18.102 21.05-28.546 7.6235-15.571 12.367-31.394 19.147-48.189l7.888-22.465 3.5969-10.475s0.56925-1.6089 1.6953-2.3747c2.1493-0.23492 4.5438-0.17732 7.446-0.14711l2e-3 -3.0314-26.227-0.0152-0.0284 3.252c9.3e-4 -0.10592 3.2555-0.42961 5.4548 1.3355 2.24 2.0007 1.9567 4.7415 1.8048 7.342-0.21732 3.6025-0.90259 7.2167-1.948 10.803l-7.257 22.591s-1.9562 7.1308-4.1018-0.12621c-2.1456-7.257-10.286-27.261-10.286-27.261l-5.427-13.946s-0.50484-1.0728 1.0097-1.0097c1.5145 0.0631 8.3626-0.0889 8.3626-0.0889l0.0303-3.0032z" stroke-width=".265"/>
   <path d="m448.8 701.68 0.0245-2.9575 4.9221-0.12621s2.5242 0.75725 2.1455-2.2718c-0.37863-3.029-0.37863-55.405-0.37863-55.405s-0.75725-1.8931-2.2718-0.37863-3.7862 4.0387-3.7862 4.0387l-2.398-1.7669 21.455-21.203 2.0193 2.2718c-2.6623 2.2919-5.5289 4.6118-4.6093 8.4504 0.25242 1.0097 0.92108 3.2661 3.6977 0.48952 2.7766-2.7766 7.8624-6.5722 12.785-7.2032 4.9221-0.63104 9.9048-0.97001 14.575 2.69 4.6697 3.66 5.7263 9.6596 5.8525 13.067 0.12621 3.4076 0.0725 51.794 0.0725 51.794s0.0118 3.0861 2.5386 4.6919c2.2697 1.0989 3.711 1.0608 7.6544 0.97109l-0.0181 2.8477h-28.434l0.0217-2.9575 5.9318-0.12621s1.8931 0.37863 2.0193-3.029c-0.28668-15.442-0.37926-38.668-0.77072-53.674-0.0731-2.6178-0.21914-3.415-0.89318-4.9995-1.4474-3.3902-3.3273-6.0371-8.8537-6.4714-3.7956-0.22218-7.3678 0.7817-10.075 2.807-3.4844 3.4083-6.2072 9.3022-6.2072 9.3022-0.0427 7.0272-0.22811 17.706-0.0911 23.209l0.10715 18.245c0.30612 3.7611-0.35361 8.2222 1.6374 11.476 1.3656 2.2319 4.7656 3.3764 8.2349 3.0083l1.2621-0.25241-0.0339 3.4624z" stroke-width=".26458px"/>
  </g>
 </g>
</svg>
